<svg width="20" height="20" viewBox="0 0 20 20" fill="none" xmlns="http://www.w3.org/2000/svg">
<path d="M8.83342 11.5L7.02091 9.68746C6.86814 9.53468 6.67703 9.46163 6.44758 9.46829C6.21814 9.47496 6.0273 9.55496 5.87508 9.70829C5.7223 9.86107 5.64591 10.0555 5.64591 10.2916C5.64591 10.5277 5.7223 10.7222 5.87508 10.875L8.25008 13.25C8.40286 13.4027 8.5973 13.4791 8.83342 13.4791C9.06953 13.4791 9.26397 13.4027 9.41675 13.25L14.1459 8.52079C14.2987 8.36801 14.3717 8.1769 14.3651 7.94746C14.3584 7.71801 14.2784 7.52718 14.1251 7.37496C13.9723 7.22218 13.7779 7.14579 13.5417 7.14579C13.3056 7.14579 13.1112 7.22218 12.9584 7.37496L8.83342 11.5ZM10.0001 18.3333C8.8473 18.3333 7.76397 18.1144 6.75008 17.6766C5.73619 17.2388 4.85425 16.6452 4.10425 15.8958C3.35425 15.1458 2.76064 14.2638 2.32341 13.25C1.88619 12.2361 1.6673 11.1527 1.66675 9.99996C1.66675 8.84718 1.88564 7.76385 2.32341 6.74996C2.76119 5.73607 3.3548 4.85413 4.10425 4.10413C4.85425 3.35413 5.73619 2.76051 6.75008 2.32329C7.76397 1.88607 8.8473 1.66718 10.0001 1.66663C11.1529 1.66663 12.2362 1.88551 13.2501 2.32329C14.264 2.76107 15.1459 3.35468 15.8959 4.10413C16.6459 4.85413 17.2398 5.73607 17.6776 6.74996C18.1154 7.76385 18.334 8.84718 18.3334 9.99996C18.3334 11.1527 18.1145 12.2361 17.6767 13.25C17.239 14.2638 16.6454 15.1458 15.8959 15.8958C15.1459 16.6458 14.264 17.2397 13.2501 17.6775C12.2362 18.1152 11.1529 18.3338 10.0001 18.3333ZM10.0001 16.6666C11.8473 16.6666 13.4204 16.0175 14.7192 14.7191C16.0181 13.4208 16.6673 11.8477 16.6667 9.99996C16.6667 8.15274 16.0176 6.57968 14.7192 5.28079C13.4209 3.9819 11.8479 3.33274 10.0001 3.33329C8.15286 3.33329 6.5798 3.98246 5.28091 5.28079C3.98203 6.57913 3.33286 8.15218 3.33341 9.99996C3.33341 11.8472 3.98258 13.4202 5.28091 14.7191C6.57925 16.018 8.1523 16.6672 10.0001 16.6666Z" fill="white"/>
</svg>
